<svg id="Layer_1" data-name="Layer 1" xmlns="http://www.w3.org/2000/svg" viewBox="0 0 937.44 261.1"><defs><style>.cls-1{fill:#ffffff;}.cls-2{fill:#b9974f;}</style></defs><title>centauro-menu-logo</title><path class="cls-1" d="M874.73,325.4l3.51,1.94s7.88-19.16,30.17-31.75a73.35,73.35,0,0,1,28.13-9.19,56.83,56.83,0,0,0-6.3-16.65C883.83,280.86,874.73,325.4,874.73,325.4Z" transform="translate(-42.17 -66.24)"/><path class="cls-1" d="M678.7,320.89l9.29,3.05s10.09-24.78,36.1-28V292.4S692.8,289.32,678.7,320.89Z" transform="translate(-42.17 -66.24)"/><path class="cls-1" d="M976.23,160.85l1.69-3.12-2.18-11.21-3.87,0c-.23-.61-.46-1.22-.7-1.82L971,144h-.09A123.51,123.51,0,0,0,856.28,66.24v4.4A119.11,119.11,0,0,1,966.45,144.8l-2.62,1.86L959.59,150H880.42v-7.59h7.28v-8.84h2.8l-5-9.45v-.91h0v-1.67h0v-4.41a6.33,6.33,0,0,1-2.66-.49,12,12,0,0,0-8.34,0,7.47,7.47,0,0,1-5.32,0,12,12,0,0,0-8.34,0,7.49,7.49,0,0,1-5.33,0,10.89,10.89,0,0,0-4.17-.75v4.4a6.33,6.33,0,0,1,2.66.49,11.85,11.85,0,0,0,8.35,0,7.46,7.46,0,0,1,5.32,0,11.82,11.82,0,0,0,8.34,0,7.46,7.46,0,0,1,5.32,0l.44.16-1.19,1.16a12.79,12.79,0,0,0-1.91-.14,10.66,10.66,0,0,0-4.17.76,7.47,7.47,0,0,1-5.32,0,11.82,11.82,0,0,0-8.34,0,7.49,7.49,0,0,1-5.33,0,10.66,10.66,0,0,0-4.17-.76v4.4a6.49,6.49,0,0,1,2.66.49,11.85,11.85,0,0,0,8.35,0,7.46,7.46,0,0,1,5.32,0,10.66,10.66,0,0,0,4.17.76,10.4,10.4,0,0,0,3.71-.6l-2.17,2.13a7,7,0,0,1-1.54.14,6.33,6.33,0,0,1-2.66-.49,11.82,11.82,0,0,0-8.34,0,7.49,7.49,0,0,1-5.33,0,10.66,10.66,0,0,0-4.17-.76v4.41a6.33,6.33,0,0,1,2.66.49,12,12,0,0,0,8.35,0,7.72,7.72,0,0,1,1.29-.39l-10.51,17.2,4.44,4.88-.06.06a.5.5,0,0,0-.12-.08l-.34-.23a22.71,22.71,0,0,0-5.18-2.56h0A29.13,29.13,0,0,0,841.76,150h-.36c-15.26.21-24.32,13.58-24.32,13.58l-14,20.43a10.1,10.1,0,0,0,4.72,15.13l30.43,11.71h0l2.29,2.55a30.32,30.32,0,0,1-15.26,4.77c-22.75,0-19.52-4.65-38.45-4.65-54.45,0-39.29,70.61-89.78,70.61-25.54,0-32.87,31-32.87,31l9,3.93S682.73,288,716.91,288c7.31,0,12.46,2.2,23.68,2.2,34,0,38.46-30.4,62.56-30.4,21,0,31.19,10.13,62.75,10.13a48.07,48.07,0,0,0,38.26-20,13.84,13.84,0,0,0-2.72-3.1c-12.88,2.15-19.08-2.63-19.38-2.87,9.88,4.41,20.26.75,20.3.74a65.46,65.46,0,0,1,8.41,8.08c-30.44,17.19-36,48-36,48l3.51,1.94s7.88-19.16,30.17-31.74a73.27,73.27,0,0,1,28.13-9.2,87.62,87.62,0,0,0-7.55-19,72.86,72.86,0,0,0-18-21.41c-3.14-17.63-19.44-28.87-19.44-49.44,0-1.71.08-3.32.23-4.84,0-.17,0-.32,0-.49.06-.58.13-1.16.21-1.71l.06-.42c.05-.33.11-.65.16-1,0,.89.12,7.63,1.75,9.76a26.44,26.44,0,0,0,13.15,3.51,26.8,26.8,0,0,0,8.33-1.34L959.59,161h0l6.41,1.43,5.93-.61a119,119,0,0,1-26.65,106.64l3.29,2.92a123.42,123.42,0,0,0,27.66-110.53ZM881,178l.51,11-2.19.1-.34-7.22-22.13,24.28.38-2-2.41-.92,9.24-34-6.27,3.58-1.09-1.9,9.53-5.47L871.7,175l-1.9,1.1-3.6-6.28-8.83,32.49,20-21.94-7.22.34-.11-2.2Zm-51,5.52A27.14,27.14,0,0,0,847.75,172c3.55,4.74,6.16,9.61,6.16,17.59a28.38,28.38,0,0,1-1.69,9.84l-1.62-.63-4.48,1.09-5.18,1.51-18.05-12.8ZM816,247.7,844.84,216l2.37.68-29.58,32.47Zm24.59,7.91,10.29-37.86,1,.28,1.55-1.29-10.72,39.44Z" transform="translate(-42.17 -66.24)"/><path class="cls-1" d="M758.43,218.83v-2.31c-25.82,5.68-33.89,38.25-48.18,41.5l-1.76,11.89C737.31,260.22,730.71,229.23,758.43,218.83Z" transform="translate(-42.17 -66.24)"/><path class="cls-1" d="M100.52,235c-27.36,0-32.31-27.84-32.31-42.4,0-26.68,12.86-35.28,29.51-35.28,13.31,0,23.86,6.25,27.54,8.75l1.29-.14-1.87-18.12s-16-4-28.6-4c-20.63,0-53.91,11.79-53.91,52.94,0,39.59,32,53,56,53,14.1,0,28.75-5.8,28.75-5.8l8.76-22.71h-2.32S124,235,100.52,235Z" transform="translate(-42.17 -66.24)"/><path class="cls-1" d="M196.17,233.94H166.8V196.77h20.12c4.12,0,7.29,3.59,7.29,3.59V181.93s-2.2,2.62-3.58,2.62H167V158.14h23.94c5.91,0,10.76,7.56,10.76,11h1.1V144.55a11.21,11.21,0,0,1-5.85,1.91h-57v1.73s3.86,1.56,3.86,8.91V240c0,1.93-3.86,5.64-3.86,5.64v1.68H203a4.91,4.91,0,0,1,3.12,1l7-24.17-1.41-.47S206.38,233.94,196.17,233.94Z" transform="translate(-42.17 -66.24)"/><path class="cls-1" d="M294.41,186.22v18.07l-59-57.83H215.74v1.36s6.46,2.71,6.46,11.53v78.41c0,4.39-3.57,7.82-3.57,7.82v1.72h20.56s-4.26-6.33-4.26-11.05V181.53h1l66,65.77h5.65V184.36a7,7,0,0,1,3.36-5.73v-1.37H290.56S294.41,181.68,294.41,186.22Z" transform="translate(-42.17 -66.24)"/><path class="cls-1" d="M354.26,239.48V159H372c3.36,0,7.54,4.11,7.54,4.11l5.27-18-1.3-1.25a7.07,7.07,0,0,1-5.14,2.58H291.19a11.18,11.18,0,0,1-5.27-1.89l-7.41,21.87,2.06.82S288,159,294.83,159h36.53v81.35c0,3.15-5,5.42-5,5.42v1.51h33.1V246S354.26,243.52,354.26,239.48Z" transform="translate(-42.17 -66.24)"/><path class="cls-1" d="M533.55,157.17v60.66c0,5.64-3,17.2-19.11,17.2s-18.86-12.93-18.86-17.88v-60c0-4.26,4.13-10.78,4.13-10.78H468.5v1.37s3.91,1.27,3.91,7.76v59.38c0,10.8,4.13,34.74,42.27,34.74s42.11-24.94,42.11-36.91V154c0-4,3.58-6.19,3.58-6.19v-1.46l-30.53,0S533.55,151.67,533.55,157.17Z" transform="translate(-42.17 -66.24)"/><path class="cls-1" d="M463.92,235.85c-1.33-3.33-35.29-89.44-35.29-89.44H407.06v1.4c1.92,3.31,1.79,9.84.89,12.1s-28.61,74.42-30.4,77.93S369,246.1,369,246.1v1.2h23.31s-1.58-9.18-.82-11.17l8.54-23h29.61c5,13.23,9.32,25.11,9.32,26.43a29.59,29.59,0,0,1-1.67,7.75h35.81V246S465.25,239.18,463.92,235.85Zm-59.75-34c5.49-14.8,10.67-28.8,10.67-28.8l.07,1.72s5,12.83,10.43,27.08Z" transform="translate(-42.17 -66.24)"/><path class="cls-1" d="M624.52,197.39c8.55-4.93,16.26-13.46,16.26-26.7,0-23.58-22.63-25.16-37.36-25.16s-32.91.83-32.91.83v1.73s4.07,1.06,4.07,8V239.8c0,2.33-4.07,6-4.07,6v1.35h31.07a17.18,17.18,0,0,1-3.78-10.52V202.9c17.5,0,21,46.64,66,46.64,20.9,0,36.12-12.32,36.12-12.32v-1.61a50.17,50.17,0,0,1-15.22,2.46C676.5,238.07,647.93,238.37,624.52,197.39ZM597.8,158.16v-.22h7.83c4.3,0,12.21,2.27,12.21,14,0,16.9-11.11,20.06-17,20.06h-3Z" transform="translate(-42.17 -66.24)"/><path class="cls-1" d="M688.5,144.42c-25.35,0-40.37,17.5-40.37,38.06,0,20.77,15.42,38.06,40.37,38.06,18.06,0,40.64-10.16,40.64-39.75C729.14,159.45,713.86,144.42,688.5,144.42Zm3.21,64c-12.77,1.33-19.45-13.39-20.1-27.08s4.62-23.18,14.3-24.83c10.46-1.77,18.47,9.2,19.83,23.94S703.12,207.25,691.71,208.45Z" transform="translate(-42.17 -66.24)"/><path class="cls-2" d="M53.73,305.32h8.41v2.9H50.34V277.64H61.8v2.9H53.73v10.32h6.59v2.9H53.73Z" transform="translate(-42.17 -66.24)"/><path class="cls-2" d="M89.91,277.64H93.3l-4.91,30.58H83l-4.92-30.58h3.4l4.17,28.22Z" transform="translate(-42.17 -66.24)"/><path class="cls-2" d="M114.39,305.32h8.41v2.9H111V277.64h11.45v2.9h-8.06v10.32H121v2.9h-6.59Z" transform="translate(-42.17 -66.24)"/><path class="cls-2" d="M151.26,277.64h3.09v30.58h-3.68l-6.35-23.7v23.7h-3.09V277.64h3.93l6.1,22.86Z" transform="translate(-42.17 -66.24)"/><path class="cls-2" d="M185.22,277.64v2.9h-4.91v27.68H177V280.54h-4.91v-2.9Z" transform="translate(-42.17 -66.24)"/><path class="cls-2" d="M206.55,277.64h5c2.59,0,3.88,1.3,3.88,3.88v22.81q0,3.89-3.88,3.89h-5c-2.58,0-3.88-1.3-3.88-3.89V281.52C202.67,278.94,204,277.64,206.55,277.64Zm5.56,26.15V282.07a1.78,1.78,0,0,0-.3-1.26,1.89,1.89,0,0,0-1.22-.27h-3.05a2,2,0,0,0-1.23.27,1.78,1.78,0,0,0-.3,1.26v21.72a1.78,1.78,0,0,0,.3,1.26,2,2,0,0,0,1.23.27h3.05a1.89,1.89,0,0,0,1.22-.27A1.78,1.78,0,0,0,212.11,303.79Z" transform="translate(-42.17 -66.24)"/><path class="cls-2" d="M243.37,303.79v-8.35a1.85,1.85,0,0,0-.29-1.26,2,2,0,0,0-1.23-.27h-3.34q-3.88,0-3.89-3.88v-8.51c0-2.58,1.3-3.88,3.89-3.88h4.32c2.59,0,3.88,1.3,3.88,3.88v4.72h-3.39v-4.17a1.18,1.18,0,0,0-1.52-1.53h-2.26a1.19,1.19,0,0,0-1.53,1.53v7.42a2,2,0,0,0,.27,1.23,1.85,1.85,0,0,0,1.26.29h3.34q3.88,0,3.88,3.89v9.43q0,3.89-3.88,3.89H238.6q-3.89,0-3.88-3.89v-4.72h3.39v4.18a1.19,1.19,0,0,0,1.53,1.53h2.21a2,2,0,0,0,1.23-.27A1.85,1.85,0,0,0,243.37,303.79Z" transform="translate(-42.17 -66.24)"/><path class="cls-2" d="M295.33,303.79v-8.35a1.78,1.78,0,0,0-.3-1.26,1.91,1.91,0,0,0-1.23-.27h-3.34q-3.88,0-3.88-3.88v-8.51c0-2.58,1.29-3.88,3.88-3.88h4.33c2.59,0,3.88,1.3,3.88,3.88v4.72h-3.39v-4.17a1.18,1.18,0,0,0-1.52-1.53h-2.27a1.18,1.18,0,0,0-1.52,1.53v7.42a2,2,0,0,0,.27,1.23,1.83,1.83,0,0,0,1.25.29h3.35q3.89,0,3.88,3.89v9.43q0,3.89-3.88,3.89h-4.28q-3.88,0-3.88-3.89v-4.72h3.39v4.18a1.18,1.18,0,0,0,1.52,1.53h2.21a1.91,1.91,0,0,0,1.23-.27A1.78,1.78,0,0,0,295.33,303.79Z" transform="translate(-42.17 -66.24)"/><path class="cls-2" d="M321.77,277.64h5c2.58,0,3.88,1.3,3.88,3.88v22.81c0,2.59-1.3,3.89-3.88,3.89h-5q-3.88,0-3.88-3.89V281.52C317.89,278.94,319.18,277.64,321.77,277.64Zm5.56,26.15V282.07a1.78,1.78,0,0,0-.3-1.26,1.91,1.91,0,0,0-1.23-.27h-3a1.91,1.91,0,0,0-1.23.27,1.78,1.78,0,0,0-.3,1.26v21.72a1.78,1.78,0,0,0,.3,1.26,1.91,1.91,0,0,0,1.23.27h3a1.91,1.91,0,0,0,1.23-.27A1.78,1.78,0,0,0,327.33,303.79Z" transform="translate(-42.17 -66.24)"/><path class="cls-2" d="M362.87,286.69h-3.39v-4.62a1.78,1.78,0,0,0-.3-1.26,2,2,0,0,0-1.23-.27h-2.7a1.19,1.19,0,0,0-1.53,1.53v21.77a2,2,0,0,0,.27,1.23,1.78,1.78,0,0,0,1.26.3H358a1.22,1.22,0,0,0,1.53-1.53v-4.62h3.39v5.16q0,3.89-3.89,3.89h-4.77c-2.58,0-3.88-1.3-3.88-3.89V281.52c0-2.58,1.3-3.88,3.88-3.88H359c2.59,0,3.89,1.3,3.89,3.88Z" transform="translate(-42.17 -66.24)"/><path class="cls-2" d="M382.77,277.64h3.35v30.58h-3.35Z" transform="translate(-42.17 -66.24)"/><path class="cls-2" d="M416.79,308.22l-1.28-7.77h-6.19l-1.13,7.77H404.8l4.76-30.58h5.36l5.26,30.58Zm-7.08-10.67h5.36L412.22,280Z" transform="translate(-42.17 -66.24)"/><path class="cls-2" d="M441.71,305.32h7v2.9H438.37V277.64h3.34Z" transform="translate(-42.17 -66.24)"/><path class="cls-2" d="M469.83,305.32h8.4v2.9h-11.8V277.64h11.46v2.9h-8.06v10.32h6.58v2.9h-6.58Z" transform="translate(-42.17 -66.24)"/><path class="cls-2" d="M504.68,303.79v-8.35a1.78,1.78,0,0,0-.3-1.26,2,2,0,0,0-1.23-.27h-3.34q-3.88,0-3.88-3.88v-8.51c0-2.58,1.29-3.88,3.88-3.88h4.33c2.58,0,3.88,1.3,3.88,3.88v4.72h-3.39v-4.17a1.19,1.19,0,0,0-1.53-1.53h-2.26a1.18,1.18,0,0,0-1.52,1.53v7.42a2,2,0,0,0,.27,1.23,1.83,1.83,0,0,0,1.25.29h3.34q3.88,0,3.89,3.89v9.43q0,3.89-3.89,3.89h-4.27q-3.89,0-3.88-3.89v-4.72h3.39v4.18a1.18,1.18,0,0,0,1.52,1.53h2.21a2,2,0,0,0,1.23-.27A1.78,1.78,0,0,0,504.68,303.79Z" transform="translate(-42.17 -66.24)"/></svg>